<?xml version="1.0" encoding="utf-8"?>
<!-- Generator: Adobe Illustrator 27.2.0, SVG Export Plug-In . SVG Version: 6.00 Build 0)  -->
<svg version="1.1" id="Green_ETH" xmlns="http://www.w3.org/2000/svg" xmlns:xlink="http://www.w3.org/1999/xlink" x="0px" y="0px"
	 viewBox="0 0 1080 1080" style="enable-background:new 0 0 1080 1080;" xml:space="preserve">
<style type="text/css">
	.st0{clip-path:url(#SVGID_00000051368587530854059090000014699932894720289438_);}
	.st1{opacity:0.9;}
	.st2{fill:#45B400;}
	.st3{opacity:0.8;}
	.st4{opacity:0.8;fill:#45B400;enable-background:new    ;}
	.st5{opacity:0.9;fill:#45B400;enable-background:new    ;}
</style>
<g>
	<defs>
		<path id="SVGID_1_" d="M747.5,357.3c0,131.7-93.2,238.5-208.1,238.5c-276-12.5-275.9-464.5,0-477
			C654.3,118.8,747.5,225.6,747.5,357.3L747.5,357.3z"/>
	</defs>
	<clipPath id="SVGID_00000180339279060628731970000012523444822708569248_">
		<use xlink:href="#SVGID_1_"  style="overflow:visible;"/>
	</clipPath>
	<g style="clip-path:url(#SVGID_00000180339279060628731970000012523444822708569248_);">
		<g>
			<g class="st1">
				<path class="st2" d="M534.1,399.8c5.6,9.7,54.8,98.4,17.1,200.8c-2.7,7.4-10.4,11.7-18.1,10.2c-33.1-6.5-116.5-30.5-165.3-115
					c-5.6-9.7-54.5-98-17.4-200c2.9-7.8,11-12.4,19.2-10.8C403.4,291.7,485.8,316.1,534.1,399.8L534.1,399.8z"/>
			</g>
			<g class="st3">
				<path class="st2" d="M597.5,411c2,11,17.8,111.2-52.6,194.6c-5.1,6-13.8,7.4-20.5,3.3c-29-17.4-99-68.5-116-164.6
					c-1.9-11-17.7-110.7,52.1-193.9c5.4-6.4,14.6-7.9,21.8-3.6C511.7,264.7,580.7,315.8,597.5,411z"/>
			</g>
			<g class="st3">
				<path class="st2" d="M481.6,411.4c-2,11-17.8,111.2,52.6,194.6c5.1,6,13.8,7.4,20.5,3.3c29-17.4,99-68.5,116-164.6
					c1.9-11,17.7-110.7-52.1-193.9c-5.4-6.4-14.6-7.9-21.8-3.6C567.5,265.1,498.4,316.2,481.6,411.4L481.6,411.4z"/>
			</g>
			<g class="st1">
				<path class="st2" d="M545.5,400c-5.6,9.7-54.8,98.4-17.1,200.8c2.7,7.4,10.4,11.7,18.1,10.2c33.2-6.5,116.5-30.5,165.3-115
					c5.6-9.7,54.5-98,17.4-200c-2.8-7.8-11-12.4-19.2-10.8C676.2,291.9,593.8,316.3,545.5,400z"/>
			</g>
		</g>
	</g>
</g>
<g>
	<path class="st4" d="M540.3,701.5l317.3-187.9L540.3,961.2l-126-177.6L540.3,701.5z"/>
	<path class="st5" d="M540.1,701.5L222.4,513.5l317.7,447.7l126.2-177.6L540.1,701.5z"/>
</g>
</svg>
